PathFileType	4	(X/Y/Z)	70_1_38_p0_0-216_filt_butterworth.trc
DataRate	CameraRate	NumFrames	NumMarkers	Units	OrigDataRate	OrigDataStartFrame	OrigNumFrames
48.0	48.0	4	27	m	48.0	0	216
Frame#	Time	RHip			RKnee			RAnkle			RBigToe			RSmallToe			RHeel			LHip			LKnee			LAnkle			LBigToe			LSmallToe			LHeel			Neck			Head			Nose			RShoulder			RElbow			RWrist			RThumb			RIndex			RPinky			LShoulder			LElbow			LWrist			LThumb			LIndex			LPinky			
		X1	Y1	Z1	X2	Y2	Z2	X3	Y3	Z3	X4	Y4	Z4	X5	Y5	Z5	X6	Y6	Z6	X7	Y7	Z7	X8	Y8	Z8	X9	Y9	Z9	X10	Y10	Z10	X11	Y11	Z11	X12	Y12	Z12	X13	Y13	Z13	X14	Y14	Z14	X15	Y15	Z15	X16	Y16	Z16	X17	Y17	Z17	X18	Y18	Z18	X19	Y19	Z19	X20	Y20	Z20	X21	Y21	Z21	X22	Y22	Z22	X23	Y23	Z23	X24	Y24	Z24	X25	Y25	Z25	X26	Y26	Z26	X27	Y27	Z27	
0	0.0	0.3703131195541428	0.507186296533584	0.09546873953115927	0.36789211278315914	0.6845129023821601	0.49364661552201317	0.3757280880860574	0.8156659949692564	0.9138574684813061	0.3169067646185352	0.6581681165522328	1.014527079785566	0.38729213851968947	0.6608563843254182	0.9980597249443772	0.35783089636021137	0.9382941385709241	0.9916426740708268	0.1232126398622621	0.610468576394338	0.08583849941278685	0.1526339697999857	0.7196305621439067	0.5010688479731296	0.16402510149287372	0.8399701593807082	0.8991437407811091	0.17639076793392408	0.671884946903063	0.9954822098154305	0.11821859877768169	0.7012559151470126	0.9743588623926462	0.19313848247022497	0.892777985687834	0.9382459859588643	0.22980141333602067	0.40565329200215783	-0.5581884260392707	0.21169386062760137	0.28603659615840527	-0.8112916837202652	0.1987768630765171	0.24654685477765462	-0.658878457265634	0.4122496847119472	0.43250459401590785	-0.45794830979119944	0.4820576794574526	0.4558898520301764	-0.16995187627990366	0.46588863358901966	0.4520571656642341	0.12013962744259038	0.3962409652845001	0.4469447803099834	0.2399899948970334	0.4115181894223846	0.4288990005653166	0.2612224731302284	0.44592964640628435	0.4451448776751188	0.26659992298582824	0.051703121158748505	0.44729395522830895	-0.4538613967208585	0.00984028543135417	0.5636571166996945	-0.17538093436777893	0.004665759439897584	0.5404060050085462	0.11853254749057818	0.05181074848607696	0.5182023645705373	0.22326473923066495	0.022179775816255538	0.47561574993320843	0.2405890524634684	-0.002671835151800595	0.5483483800430029	0.24793087938712602
1	0.0208333333333333	0.36790642927572087	0.5017413898486346	0.09290769463205034	0.367903542179601	0.6842422059683766	0.49487654591654523	0.3757255486683244	0.8142585735096511	0.9059567562820456	0.3140735239887133	0.6426526392671622	1.008527434718654	0.38747057409568114	0.6432197432618201	0.9886180079194915	0.35810199283011557	0.9362295709460553	0.9854676024024257	0.12182213771383787	0.589965790617957	0.08300889542964118	0.15367207829137294	0.7125884360625641	0.5000673111325495	0.16406828572466037	0.8398168245131026	0.8990619848737972	0.16965582233297166	0.6609446037576003	0.9916742812041909	0.1160259231952566	0.712509669302605	0.9781617530877296	0.19103115819924096	0.8859804328463362	0.9376695529457832	0.22978519076453782	0.4056234045817486	-0.558257364821827	0.21142619926631018	0.2858829022616411	-0.8112165308184247	0.1987809202854352	0.24665999173062542	-0.6589222360575187	0.41222488891293774	0.4324124999708168	-0.45794281142871895	0.48158462797137275	0.4556060733815437	-0.17242958137958334	0.460084702105949	0.43858362642909654	0.11661228323193501	0.3904005021576033	0.45449427445009544	0.23977881499945713	0.40456664829304706	0.4290240497533492	0.26042291208545415	0.4452926107996202	0.4337861217841953	0.26075442615346517	0.05145361908529039	0.4472175311316312	-0.45385274063414205	0.009870659057436814	0.5636026023666166	-0.1753478584804434	0.008374375157900184	0.5261245062617903	0.11720164080896923	0.05084752768737698	0.5145661631548266	0.22412698111237989	0.022618241967214996	0.46959289698654927	0.24037151400371842	-0.0003074133748299993	0.5468245044728193	0.24763634318272332
2	0.0416666666666666	0.36533687490467626	0.496083183865173	0.09085495319355766	0.367877867186935	0.6841219664778785	0.4946432362932637	0.37533636704192447	0.8125415422179016	0.8999326566025554	0.31385900279818585	0.6377034837607511	1.005393890177742	0.38883208250449325	0.638013165814989	0.9850816197949251	0.35786982907156367	0.9346498660640058	0.9811742112760259	0.12135260696551137	0.5802286518735325	0.08270308378506076	0.15434236106327928	0.7088650693188451	0.49958029868686804	0.1640925130215345	0.8397177856863166	0.8989936634018593	0.16630845985897422	0.6554192027546499	0.989353539988821	0.11494223539293363	0.7180111744334858	0.9800263210416269	0.18992007437053565	0.8824964096673334	0.9374278155778248	0.22978151807552813	0.40561053193656754	-0.5583047398280225	0.21163861674790033	0.28587548659683243	-0.8113091871832645	0.19876818942334984	0.24667518145784734	-0.6589247318205729	0.41220882724634306	0.4323417639809365	-0.457964975844567	0.48137596183375764	0.4549535129069989	-0.1751823827726625	0.454440616691203	0.4263634202614118	0.11325066567066805	0.3838909829343621	0.4454417294862067	0.235286290207221	0.3975668597781849	0.4210866442032336	0.2555359053834789	0.44438373281213167	0.4273320301516333	0.25444809784371686	0.05178716997728382	0.4469934304879399	-0.45385535677156574	0.009869436408622388	0.5636268189710226	-0.1753102729022123	0.01176232756833782	0.5196455555659187	0.11560993042590965	0.04861154431066972	0.5080513120043578	0.22199449382023523	0.02276978219790806	0.4603214705174845	0.23830530802545288	0.0037586817698264485	0.5377251882465801	0.24449301803500642
3	0.0625	0.3633604956696973	0.491978118313185	0.08822377336869534	0.3678006859865621	0.684110127744762	0.4938042406514819	0.3746782152219098	0.8105844756486069	0.8955757370100178	0.3161614517545055	0.6397088113421953	1.0042977125206143	0.39033923585663166	0.6414025795521977	0.9859406847072405	0.3574772628845551	0.933952927471397	0.9794650137357569	0.12155563510979989	0.5795057015189681	0.08373799391842329	0.15507415506870095	0.7063878237143393	0.49954464331654225	0.16410458802552252	0.8396632018447001	0.8989444387906549	0.16576827733778393	0.6544847334080961	0.987766927854046	0.11483133176846896	0.7183272212200906	0.9801947128696349	0.18918697199618553	0.8803579451085207	0.9374775743125734	0.22978988717750534	0.4056244021341078	-0.5583389974746478	0.21280835575632467	0.28619675374164344	-0.8113537367775798	0.19873368424904175	0.2466261253431138	-0.658884860806051	0.41212156320059756	0.4322928652193701	-0.4579995073793136	0.4820443608585082	0.4542316232375766	-0.1773388091225488	0.45013285040581097	0.4176723481055723	0.10957023644730828	0.3778837148363019	0.4267703692829167	0.2271699233671733	0.3903685772070803	0.40438911753432794	0.24646621357876242	0.4435729991638884	0.4254710501386706	0.24746628504143725	0.05320577990306159	0.4468485125135463	-0.45394706077945945	0.009829818440407855	0.5637254351250387	-0.1752208741864469	0.01407642015034905	0.5191472245723305	0.11395015499440894	0.04605952509173933	0.5018194623523455	0.21782762832765873	0.022928547683041353	0.45204964137486897	0.23533398864349298	0.008137157073693816	0.5231116334363741	0.23898661269961316
